<mxfile host="app.diagrams.net" agent="Mozilla/5.0 (Windows NT 10.0; Win64; x64) AppleWebKit/537.36 (KHTML, like Gecko) Chrome/129.0.0.0 Safari/537.36 Edg/129.0.0.0" version="24.7.7">
  <diagram name="Page-1" id="yYlM8fkvEVcq2ToJM_Fb">
    <mxGraphModel dx="2037" dy="1119" grid="1" gridSize="10" guides="1" tooltips="1" connect="1" arrows="1" fold="1" page="1" pageScale="1" pageWidth="850" pageHeight="1100" math="0" shadow="0">
      <root>
        <mxCell id="0" />
        <mxCell id="1" parent="0" />
        <mxCell id="taENoazSWng2GLODx_ML-2" value="" style="rounded=0;whiteSpace=wrap;html=1;fillColor=#dae8fc;strokeColor=#6c8ebf;" vertex="1" parent="1">
          <mxGeometry x="20" y="70" width="810" height="1010" as="geometry" />
        </mxCell>
        <mxCell id="taENoazSWng2GLODx_ML-3" value="" style="rounded=1;whiteSpace=wrap;html=1;" vertex="1" parent="1">
          <mxGeometry x="220" y="110" width="120" height="60" as="geometry" />
        </mxCell>
        <mxCell id="taENoazSWng2GLODx_ML-4" value="" style="rounded=1;whiteSpace=wrap;html=1;" vertex="1" parent="1">
          <mxGeometry x="370" y="110" width="120" height="60" as="geometry" />
        </mxCell>
        <mxCell id="taENoazSWng2GLODx_ML-5" value="" style="rounded=1;whiteSpace=wrap;html=1;" vertex="1" parent="1">
          <mxGeometry x="510" y="110" width="120" height="60" as="geometry" />
        </mxCell>
        <mxCell id="taENoazSWng2GLODx_ML-8" value="" style="rounded=1;whiteSpace=wrap;html=1;" vertex="1" parent="1">
          <mxGeometry x="80" y="200" width="330" height="280" as="geometry" />
        </mxCell>
        <mxCell id="taENoazSWng2GLODx_ML-9" value="" style="rounded=1;whiteSpace=wrap;html=1;" vertex="1" parent="1">
          <mxGeometry x="440" y="200" width="330" height="280" as="geometry" />
        </mxCell>
        <mxCell id="taENoazSWng2GLODx_ML-21" value="" style="rounded=0;whiteSpace=wrap;html=1;" vertex="1" parent="1">
          <mxGeometry x="70" y="841" width="710" height="220" as="geometry" />
        </mxCell>
        <mxCell id="taENoazSWng2GLODx_ML-22" value="Modification Suggestions by AI" style="text;html=1;align=center;verticalAlign=middle;whiteSpace=wrap;rounded=0;fontStyle=1" vertex="1" parent="1">
          <mxGeometry x="70" y="800" width="190" height="30" as="geometry" />
        </mxCell>
        <mxCell id="taENoazSWng2GLODx_ML-23" value="Total PRs" style="text;html=1;align=center;verticalAlign=middle;whiteSpace=wrap;rounded=0;" vertex="1" parent="1">
          <mxGeometry x="230" y="110" width="60" height="30" as="geometry" />
        </mxCell>
        <mxCell id="taENoazSWng2GLODx_ML-25" value="New Test Cases" style="text;html=1;align=center;verticalAlign=middle;whiteSpace=wrap;rounded=0;" vertex="1" parent="1">
          <mxGeometry x="513" y="109" width="90" height="30" as="geometry" />
        </mxCell>
        <mxCell id="taENoazSWng2GLODx_ML-26" value="Total Test Cases" style="text;html=1;align=center;verticalAlign=middle;whiteSpace=wrap;rounded=0;" vertex="1" parent="1">
          <mxGeometry x="377" y="110" width="90" height="30" as="geometry" />
        </mxCell>
        <mxCell id="taENoazSWng2GLODx_ML-27" value="Current Version" style="text;html=1;align=center;verticalAlign=middle;whiteSpace=wrap;rounded=0;fontStyle=1" vertex="1" parent="1">
          <mxGeometry x="190" y="200" width="100" height="30" as="geometry" />
        </mxCell>
        <mxCell id="taENoazSWng2GLODx_ML-28" value="PR Version" style="text;html=1;align=center;verticalAlign=middle;whiteSpace=wrap;rounded=0;fontStyle=1" vertex="1" parent="1">
          <mxGeometry x="560" y="200" width="90" height="30" as="geometry" />
        </mxCell>
        <mxCell id="taENoazSWng2GLODx_ML-42" value="" style="group" vertex="1" connectable="0" parent="1">
          <mxGeometry x="80" y="519" width="687" height="260" as="geometry" />
        </mxCell>
        <mxCell id="taENoazSWng2GLODx_ML-38" value="" style="rounded=0;whiteSpace=wrap;html=1;" vertex="1" parent="taENoazSWng2GLODx_ML-42">
          <mxGeometry x="79.26923076923077" width="607.7307692307692" height="260" as="geometry" />
        </mxCell>
        <mxCell id="taENoazSWng2GLODx_ML-11" value="" style="rounded=1;whiteSpace=wrap;html=1;" vertex="1" parent="taENoazSWng2GLODx_ML-42">
          <mxGeometry x="93.36153846153846" y="47" width="563.6923076923076" height="30" as="geometry" />
        </mxCell>
        <mxCell id="taENoazSWng2GLODx_ML-12" value="" style="rounded=1;whiteSpace=wrap;html=1;" vertex="1" parent="taENoazSWng2GLODx_ML-42">
          <mxGeometry x="93.36153846153846" y="87" width="563.6923076923076" height="30" as="geometry" />
        </mxCell>
        <mxCell id="taENoazSWng2GLODx_ML-13" value="" style="rounded=1;whiteSpace=wrap;html=1;" vertex="1" parent="taENoazSWng2GLODx_ML-42">
          <mxGeometry x="93.36153846153846" y="169" width="563.6923076923076" height="30" as="geometry" />
        </mxCell>
        <mxCell id="taENoazSWng2GLODx_ML-14" value="" style="rounded=1;whiteSpace=wrap;html=1;" vertex="1" parent="taENoazSWng2GLODx_ML-42">
          <mxGeometry x="93.36153846153846" y="129" width="563.6923076923076" height="30" as="geometry" />
        </mxCell>
        <mxCell id="taENoazSWng2GLODx_ML-15" value="" style="rounded=1;whiteSpace=wrap;html=1;" vertex="1" parent="taENoazSWng2GLODx_ML-42">
          <mxGeometry x="93.36153846153846" y="209" width="563.6923076923076" height="30" as="geometry" />
        </mxCell>
        <mxCell id="taENoazSWng2GLODx_ML-17" value="Test Cases" style="text;html=1;align=center;verticalAlign=middle;whiteSpace=wrap;rounded=0;fontStyle=1" vertex="1" parent="taENoazSWng2GLODx_ML-42">
          <mxGeometry x="312.6730769230769" y="10" width="132.1153846153846" height="30" as="geometry" />
        </mxCell>
        <mxCell id="taENoazSWng2GLODx_ML-19" value="" style="endArrow=none;html=1;rounded=0;exitX=0.975;exitY=0.995;exitDx=0;exitDy=0;exitPerimeter=0;entryX=0.972;entryY=-0.002;entryDx=0;entryDy=0;entryPerimeter=0;" edge="1" parent="taENoazSWng2GLODx_ML-42" source="taENoazSWng2GLODx_ML-38" target="taENoazSWng2GLODx_ML-38">
          <mxGeometry width="50" height="50" relative="1" as="geometry">
            <mxPoint x="671.4280000000001" y="251.93999999999983" as="sourcePoint" />
            <mxPoint x="670.2213461538462" y="10" as="targetPoint" />
          </mxGeometry>
        </mxCell>
        <mxCell id="taENoazSWng2GLODx_ML-20" value="" style="rounded=1;whiteSpace=wrap;html=1;rotation=90;fillColor=#919191;" vertex="1" parent="taENoazSWng2GLODx_ML-42">
          <mxGeometry x="665.1" y="15" width="26.423076923076923" height="10" as="geometry" />
        </mxCell>
        <mxCell id="taENoazSWng2GLODx_ML-34" value="" style="rounded=0;whiteSpace=wrap;html=1;fillColor=#BFBFBF;" vertex="1" parent="taENoazSWng2GLODx_ML-42">
          <mxGeometry width="79.26923076923077" height="40" as="geometry" />
        </mxCell>
        <mxCell id="taENoazSWng2GLODx_ML-35" value="" style="rounded=0;whiteSpace=wrap;html=1;" vertex="1" parent="taENoazSWng2GLODx_ML-42">
          <mxGeometry y="40" width="79.26923076923077" height="40" as="geometry" />
        </mxCell>
        <mxCell id="taENoazSWng2GLODx_ML-36" value="" style="rounded=0;whiteSpace=wrap;html=1;" vertex="1" parent="taENoazSWng2GLODx_ML-42">
          <mxGeometry y="80" width="79.26923076923077" height="40" as="geometry" />
        </mxCell>
        <mxCell id="taENoazSWng2GLODx_ML-37" value="" style="rounded=0;whiteSpace=wrap;html=1;" vertex="1" parent="taENoazSWng2GLODx_ML-42">
          <mxGeometry y="120" width="79.26923076923077" height="40" as="geometry" />
        </mxCell>
        <mxCell id="taENoazSWng2GLODx_ML-56" value="&lt;span data-teams=&quot;true&quot;&gt;&lt;span class=&quot;ui-provider a b c d e f g h i j k l m n o p q r s t u v w x y z ab ac ae af ag ah ai aj ak&quot; dir=&quot;ltr&quot;&gt;&lt;b&gt;Structure&lt;/b&gt;&lt;/span&gt;&lt;/span&gt;" style="text;whiteSpace=wrap;html=1;" vertex="1" parent="taENoazSWng2GLODx_ML-42">
          <mxGeometry x="9.63" y="47" width="60" height="20" as="geometry" />
        </mxCell>
        <mxCell id="taENoazSWng2GLODx_ML-57" value="&lt;b&gt;Test Cases&lt;/b&gt;" style="text;whiteSpace=wrap;html=1;" vertex="1" parent="taENoazSWng2GLODx_ML-42">
          <mxGeometry x="6.950000000000003" y="10" width="65.37" height="20" as="geometry" />
        </mxCell>
        <mxCell id="taENoazSWng2GLODx_ML-60" value="&lt;span data-teams=&quot;true&quot;&gt;&lt;span class=&quot;ui-provider a b c d e f g h i j k l m n o p q r s t u v w x y z ab ac ae af ag ah ai aj ak&quot; dir=&quot;ltr&quot;&gt;&lt;b&gt;Logic&lt;/b&gt;&lt;/span&gt;&lt;/span&gt;" style="text;whiteSpace=wrap;html=1;" vertex="1" parent="taENoazSWng2GLODx_ML-42">
          <mxGeometry x="19.450000000000003" y="87" width="40.37" height="20" as="geometry" />
        </mxCell>
        <mxCell id="taENoazSWng2GLODx_ML-61" value="&lt;span data-teams=&quot;true&quot;&gt;&lt;span class=&quot;ui-provider a b c d e f g h i j k l m n o p q r s t u v w x y z ab ac ae af ag ah ai aj ak&quot; dir=&quot;ltr&quot;&gt;&lt;b&gt;Edge Cases&lt;/b&gt;&lt;/span&gt;&lt;/span&gt;" style="text;whiteSpace=wrap;html=1;" vertex="1" parent="taENoazSWng2GLODx_ML-42">
          <mxGeometry x="4" y="126" width="76" height="20" as="geometry" />
        </mxCell>
        <mxCell id="taENoazSWng2GLODx_ML-43" value="" style="ellipse;whiteSpace=wrap;html=1;" vertex="1" parent="1">
          <mxGeometry x="970" y="60" width="600" height="409" as="geometry" />
        </mxCell>
        <mxCell id="taENoazSWng2GLODx_ML-44" value="Github Repo" style="text;html=1;align=center;verticalAlign=middle;whiteSpace=wrap;rounded=0;" vertex="1" parent="1">
          <mxGeometry x="1205" y="90" width="140" height="30" as="geometry" />
        </mxCell>
        <UserObject label="&lt;pre class=&quot;notranslate&quot; style=&quot;box-sizing: border-box; font-family: var(--fontStack-monospace, ui-monospace, SFMono-Regular, SF Mono, Menlo, Consolas, Liberation Mono, monospace); font-size: 13.6px; margin-top: 0px; margin-bottom: 0px; overflow-wrap: normal; padding: var(--base-size-16); overflow: auto; line-height: 1.45; color: rgb(31, 35, 40); background-color: rgb(246, 248, 250); border-radius: 6px; font-style: normal; font-variant-ligatures: normal; font-variant-caps: normal; font-weight: 400; letter-spacing: normal; orphans: 2; text-align: start; text-indent: 0px; text-transform: none; widows: 2; word-spacing: 0px; -webkit-text-stroke-width: 0px; text-decoration-thickness: initial; text-decoration-style: initial; text-decoration-color: initial;&quot;&gt;&lt;code style=&quot;box-sizing: border-box; font-family: var(--fontStack-monospace, ui-monospace, SFMono-Regular, SF Mono, Menlo, Consolas, Liberation Mono, monospace); font-size: 13.6px; padding: 0px; margin: 0px; white-space: pre; background: transparent; border-radius: 6px; word-break: normal; border: 0px; display: inline; overflow: visible; line-height: inherit; overflow-wrap: normal;&quot;&gt;├── 1-introduction&#xa;│&amp;nbsp;&amp;nbsp; └── content.md&#xa;├── 2-errors&#xa;│&amp;nbsp;&amp;nbsp; ├── content.md&#xa;│&amp;nbsp;&amp;nbsp; └── sidenotes.md&#xa;├── 3-authentication&#xa;│&amp;nbsp;&amp;nbsp; ├── content.md&#xa;│&amp;nbsp;&amp;nbsp; └── sidenotes.md&lt;/code&gt;&lt;/pre&gt;" link="&lt;pre class=&quot;notranslate&quot; style=&quot;box-sizing: border-box; font-family: var(--fontStack-monospace, ui-monospace, SFMono-Regular, SF Mono, Menlo, Consolas, Liberation Mono, monospace); font-size: 13.6px; margin-top: 0px; margin-bottom: 0px; overflow-wrap: normal; padding: var(--base-size-16); overflow: auto; line-height: 1.45; color: rgb(31, 35, 40); background-color: rgb(246, 248, 250); border-radius: 6px; font-style: normal; font-variant-ligatures: normal; font-variant-caps: normal; font-weight: 400; letter-spacing: normal; orphans: 2; text-align: start; text-indent: 0px; text-transform: none; widows: 2; word-spacing: 0px; -webkit-text-stroke-width: 0px; text-decoration-thickness: initial; text-decoration-style: initial; text-decoration-color: initial;&quot;&gt;&lt;code style=&quot;box-sizing: border-box; font-family: var(--fontStack-monospace, ui-monospace, SFMono-Regular, SF Mono, Menlo, Consolas, Liberation Mono, monospace); font-size: 13.6px; padding: 0px; margin: 0px; white-space: pre; background: transparent; border-radius: 6px; word-break: normal; border: 0px; display: inline; overflow: visible; line-height: inherit; overflow-wrap: normal;&quot;&gt;├── 1-introduction&#xa;│&amp;nbsp;&amp;nbsp; └── content.md&#xa;├── 2-errors&#xa;│&amp;nbsp;&amp;nbsp; ├── content.md&#xa;│&amp;nbsp;&amp;nbsp; └── sidenotes.md&#xa;├── 3-authentication&#xa;│&amp;nbsp;&amp;nbsp; ├── content.md&#xa;│&amp;nbsp;&amp;nbsp; └── sidenotes.md&lt;/code&gt;&lt;/pre&gt;" id="taENoazSWng2GLODx_ML-45">
          <mxCell style="text;whiteSpace=wrap;html=1;" vertex="1" parent="1">
            <mxGeometry x="1060" y="179.5" width="160" height="170" as="geometry" />
          </mxCell>
        </UserObject>
        <mxCell id="taENoazSWng2GLODx_ML-46" value="" style="endArrow=none;html=1;rounded=0;entryX=0.999;entryY=0.128;entryDx=0;entryDy=0;entryPerimeter=0;" edge="1" parent="1" target="taENoazSWng2GLODx_ML-8">
          <mxGeometry width="50" height="50" relative="1" as="geometry">
            <mxPoint x="80" y="235" as="sourcePoint" />
            <mxPoint x="410" y="235" as="targetPoint" />
          </mxGeometry>
        </mxCell>
        <mxCell id="taENoazSWng2GLODx_ML-47" value="" style="endArrow=none;html=1;rounded=0;entryX=0.999;entryY=0.128;entryDx=0;entryDy=0;entryPerimeter=0;" edge="1" parent="1">
          <mxGeometry width="50" height="50" relative="1" as="geometry">
            <mxPoint x="440" y="236" as="sourcePoint" />
            <mxPoint x="770" y="237" as="targetPoint" />
          </mxGeometry>
        </mxCell>
        <mxCell id="taENoazSWng2GLODx_ML-52" value="" style="shape=mxgraph.arrows2.wedgeArrow;html=1;bendable=0;startWidth=15.053763440860216;fillColor=strokeColor;defaultFillColor=invert;defaultGradientColor=invert;rounded=0;" edge="1" parent="1">
          <mxGeometry width="100" height="100" relative="1" as="geometry">
            <mxPoint x="371" y="210" as="sourcePoint" />
            <mxPoint x="371.03999999999996" y="230" as="targetPoint" />
          </mxGeometry>
        </mxCell>
        <mxCell id="taENoazSWng2GLODx_ML-53" value="" style="shape=mxgraph.arrows2.wedgeArrow;html=1;bendable=0;startWidth=15.053763440860216;fillColor=strokeColor;defaultFillColor=invert;defaultGradientColor=invert;rounded=0;" edge="1" parent="1">
          <mxGeometry width="100" height="100" relative="1" as="geometry">
            <mxPoint x="730" y="210" as="sourcePoint" />
            <mxPoint x="730.04" y="230" as="targetPoint" />
          </mxGeometry>
        </mxCell>
        <mxCell id="taENoazSWng2GLODx_ML-55" style="edgeStyle=orthogonalEdgeStyle;rounded=0;orthogonalLoop=1;jettySize=auto;html=1;entryX=0.987;entryY=0.543;entryDx=0;entryDy=0;entryPerimeter=0;shape=flexArrow;fillColor=#000000;" edge="1" parent="1" source="taENoazSWng2GLODx_ML-43" target="taENoazSWng2GLODx_ML-2">
          <mxGeometry relative="1" as="geometry" />
        </mxCell>
      </root>
    </mxGraphModel>
  </diagram>
</mxfile>
